<svg width="240" height="226" viewBox="0 0 240 226" fill="none" xmlns="http://www.w3.org/2000/svg">
<g clip-path="url(#clip0_1_35)">
<path fill-rule="evenodd" clip-rule="evenodd" d="M121.281 60.1549L280.279 75.9565L312.429 76.438L312.429 76.4287C315.391 76.4731 317.757 78.9104 317.713 81.8726C317.711 81.9781 317.706 82.0826 317.699 82.1865L316.863 137.944L316.872 137.944C316.828 140.906 314.39 143.271 311.428 143.227C311.323 143.225 311.219 143.22 311.115 143.213C266.592 142.546 228.9 146.327 183.015 149.46C181.404 144.017 179.05 138.764 175.977 133.846C170.812 125.581 163.91 118.728 155.83 113.686C150.142 109.874 143.678 107.014 136.611 105.382C129.543 103.751 122.478 103.488 115.695 104.421C106.223 105.41 97.0156 108.544 88.7512 113.708C81.9773 117.941 76.1524 123.342 71.4952 129.601C67.8881 122.373 66.1516 114.224 66.2733 106.118C66.3825 98.8468 67.9887 91.5883 71.0816 85.0454C73.8012 79.292 77.6597 74.0844 82.6511 69.8841C93.0474 75.7924 106.479 70.9312 110.51 59.4978C114.513 59.3157 117.157 59.745 121.281 60.1549L121.281 60.1549Z" fill="#817E7E"/>
<path fill-rule="evenodd" clip-rule="evenodd" d="M135.506 110.167C120.283 106.652 104.422 109.308 91.1742 117.586C77.9266 125.864 68.5867 138.956 65.0721 154.179C61.5575 169.403 64.2132 185.263 72.4912 198.511C80.7692 211.759 93.8605 221.099 109.084 224.613C124.308 228.128 140.169 225.472 153.416 217.194C166.664 208.916 176.004 195.825 179.519 180.601C183.033 165.378 180.378 149.517 172.1 136.269C163.821 123.021 150.73 113.681 135.506 110.167ZM102.096 135.064C110.701 129.686 120.981 127.966 130.87 130.249C140.759 132.532 149.245 138.585 154.622 147.19C159.999 155.796 161.72 166.076 159.437 175.965C157.154 185.854 151.101 194.339 142.495 199.717C133.89 205.094 123.609 206.814 113.721 204.531C103.832 202.248 95.3465 196.196 89.969 187.59C84.5915 178.984 82.8712 168.705 85.1543 158.816C87.4373 148.927 93.4899 140.441 102.096 135.064Z" fill="#964B00"/>
<path d="M126.033 151.202C121.563 150.17 117.097 151.048 113.491 153.301C109.885 155.555 107.139 159.184 106.107 163.653C105.075 168.123 105.953 172.589 108.206 176.195C110.459 179.801 114.088 182.548 118.558 183.58C123.027 184.612 127.493 183.734 131.099 181.48C134.706 179.227 137.452 175.598 138.484 171.128C139.516 166.659 138.638 162.193 136.385 158.587C134.131 154.98 130.502 152.234 126.033 151.202ZM120.118 163.906C121.009 163.349 122.114 163.132 123.219 163.387C124.325 163.642 125.223 164.322 125.78 165.213C126.337 166.104 126.554 167.209 126.299 168.315C126.044 169.421 125.364 170.319 124.473 170.876C123.582 171.433 122.477 171.65 121.371 171.394C120.265 171.139 119.367 170.46 118.81 169.568C118.253 168.677 118.036 167.572 118.292 166.467C118.547 165.36 119.226 164.463 120.118 163.906Z" fill="#964B00"/>
<path d="M128.466 117.465C129.132 114.578 132.013 112.778 134.899 113.444C137.786 114.111 139.586 116.991 138.92 119.878L130.519 156.265C129.853 159.152 126.972 160.952 124.085 160.285C121.199 159.619 119.399 156.738 120.065 153.852L128.466 117.465Z" fill="#964B00"/>
<path d="M83.1319 137.082C81.0062 135.024 80.9516 131.632 83.01 129.506C85.0684 127.38 88.4608 127.326 90.5866 129.384L116.953 154.912C119.079 156.971 119.133 160.363 117.075 162.489C115.017 164.615 111.624 164.669 109.498 162.611L83.1319 137.082Z" fill="#964B00"/>
<path d="M77.4391 185.117C74.5811 185.87 71.6531 184.164 70.8997 181.306C70.1463 178.448 71.8525 175.52 74.7105 174.766L109 165.675C111.858 164.921 114.786 166.628 115.54 169.486C116.293 172.344 114.587 175.272 111.729 176.025L77.4391 185.117Z" fill="#964B00"/>
<path d="M113.965 217.728C113.155 220.57 110.194 222.216 107.352 221.406C104.511 220.596 102.864 217.635 103.675 214.793L113.921 178.893C114.731 176.051 117.692 174.405 120.533 175.215C123.375 176.025 125.021 178.986 124.211 181.828L113.965 217.728Z" fill="#964B00"/>
<path d="M160.163 200.205C162.167 202.378 162.03 205.764 159.857 207.769C157.684 209.773 154.298 209.636 152.293 207.463L127.405 180.491C125.4 178.318 125.537 174.932 127.71 172.927C129.883 170.923 133.269 171.06 135.274 173.233L160.163 200.205V200.205Z" fill="#964B00"/>
<path d="M168.066 152.5C170.957 151.909 173.781 153.774 174.372 156.666C174.964 159.558 173.099 162.381 170.207 162.973L135.459 170.121C132.567 170.712 129.743 168.847 129.152 165.955C128.561 163.063 130.426 160.24 133.318 159.648L168.066 152.5Z" fill="#964B00"/>
<path d="M96.8825 35.2318C91.668 34.028 86.4578 35.0523 82.251 37.681C78.044 40.3098 74.8395 44.5437 73.6356 49.7585C72.4317 54.973 73.4559 60.183 76.0848 64.39C78.7134 68.5967 82.9473 71.8014 88.1618 73.0053C93.3766 74.2092 98.5867 73.185 102.794 70.5562C107 67.9275 110.205 63.6937 111.409 58.4792C112.613 53.2644 111.589 48.0545 108.96 43.8473C106.331 39.6403 102.097 36.4357 96.8825 35.2318Z" fill="#817E7E"/>
</g>
<defs>
<clipPath id="clip0_1_35">
<rect width="240" height="225.695" fill="white" transform="matrix(-1 0 0 1 240 0)"/>
</clipPath>
</defs>
</svg>
