<svg width="1024" height="1024" viewBox="0 0 1024 1024" fill="none" xmlns="http://www.w3.org/2000/svg">
<g clip-path="url(#clip0_1_3)">
<path d="M512 1024C794.77 1024 1024 794.77 1024 512C1024 229.23 794.77 -0.000488281 512 -0.000488281C229.23 -0.000488281 -0.000488281 229.23 -0.000488281 512C-0.000488281 794.77 229.23 1024 512 1024Z" fill="#1E88E5"/>
<path fill-rule="evenodd" clip-rule="evenodd" d="M767.35 202.056L768.472 210.348L756.014 212.936L754.346 230.562H769.246L789.11 228.634L799.307 216.526L788.427 212.278L782.486 205.442L773.526 190.974L769.246 170.564L752.426 173.926L747.714 181.216V189.28L755.786 194.766L767.35 202.056Z" fill="#81C784"/>
<path fill-rule="evenodd" clip-rule="evenodd" d="M753.116 208.916L754.004 197.808L744.124 193.528L730.348 196.686L720.126 213.164V223.702H732.016L753.116 208.916Z" fill="#81C784"/>
<path fill-rule="evenodd" clip-rule="evenodd" d="M469.522 255.878L466.478 263.633H451.806V271.242H455.281C455.281 271.242 455.484 272.82 455.712 274.945L464.81 274.171L470.409 270.697L471.873 263.633L479.164 263.056L481.948 257.115L475.348 255.764L469.522 255.878V255.878Z" fill="#81C784"/>
<path fill-rule="evenodd" clip-rule="evenodd" d="M431.594 269.574L431.048 277.094L441.7 276.174L442.822 268.686L436.42 263.634L431.594 269.574Z" fill="#81C784"/>
<path fill-rule="evenodd" clip-rule="evenodd" d="M850.272 127.704C862.194 138.209 873.635 149.252 884.54 160.815L884.426 185.692L862.43 196.914L864.668 204.205L899.782 204.523L909.775 189.671C932.267 217.388 951.944 247.497 968.317 279.575L965.151 283.156V305.803L975.136 304.452L980.197 304.557C983.493 311.979 986.626 319.498 989.572 327.107L963.027 327.538L949.559 312.866L947.004 289.186L933.309 296.705L925.903 325.528L906.186 304.452L905.38 284.588L886.2 268.109L879.137 261.046H856.954L864.009 280.886L890.709 295.696L895.307 300.635L889.594 303.532L889.789 319.238L876.785 324.633L865.71 322.167L858.728 312.41L876.785 313.297L881.725 306.812L841.704 279.763L838.661 268.338L822.418 283.042L805.94 279.649L780.786 312.175L775.879 324.983L759.832 326.416L736.062 326.529L721.936 319.93L717.777 291.652L722.83 278.33L746.942 273.049L773.299 278.33L776.539 263.748L765.317 261.046L769.133 238.399L795.718 234.233L814.232 207.997L833.412 204.75L850.663 207.338H856.954L853.479 182.763L832.492 191.291L825.087 172.916L812.881 171.223L810.643 158.562L820.603 147.796L844.259 138.47L850.273 127.704L850.272 127.704ZM1003.38 367.812C1005.96 376.625 1008.33 385.535 1010.44 394.535L1009.01 396.065L1012.07 401.811C1019.87 437.298 1024 474.17 1024 512.002C1024 634.464 980.978 746.86 909.262 834.964H892.49V800.884L872.968 774.649V733.594L858.068 718.784L856.831 701.761L875.784 665.532L839.783 602.059L844.064 559.108L811.652 555.634L799.763 543.753H778.003L767.009 553.942H728.656L727.419 557.416H706.01L657.119 501.593L657.574 458.186L665.639 455.168L668.658 438.575H657.119L652.407 421.063L709.02 380.245V351.332L736.721 335.83L747.951 337.067H770.826L788.655 327.448L846.187 322.941V352.341L891.481 363.88L900.441 370.285H908.765V354.23L935.009 351.763L959.894 370.285H1000.72L1003.38 367.811L1003.38 367.812ZM40.576 311.931C46.2398 298.601 52.4816 285.565 59.2193 272.838L80.1572 247.359L79.2871 238.245C114.018 183.463 158.88 135.737 211.213 97.6766L236.814 97.4491L248.386 103.821L270.031 108.557L271.7 117.052L306.235 118.403L301.523 107.32L270.919 106.4L278.096 99.801L275.516 91.6144H247.815L278.096 69.0814H307.033L320.59 87.798L343.237 89.1491L356.819 75.9168L367.121 80.9704L348.29 99.3373C348.29 99.3373 322.397 99.8011 323.626 99.8011C324.976 99.8011 325.757 117.63 325.757 117.63L357.275 116.735L360.635 108.329L382.395 106.978L384.95 94.2019L372.174 92.046L376.455 80.6208L386.179 77.5775L420.283 79.2696L401.453 96.3263L404.472 109.558L424.109 112.463L422.872 88.6933L441.588 78.8138L474.772 75.0225L522.882 96.3265V114.587L538.238 118.518L530.515 132.986H508.877L502.359 149.578L452.809 137.812L491.829 117.053L476.929 104.39L443.28 108.638L440.351 111.682H440.237L439.692 112.341L430.049 122.448L414.001 123.799L415.238 131.749L420.837 134.101L420.634 136.803L407.597 138.585L406.71 146.218L394.276 146.796L392.038 131.749L369.586 138.585L323.943 165.284L329.11 184.115L341.886 192.407L367.348 195.995V225.046L379.237 223.158L390.117 200.389L417.248 191.861V156.984L432.401 145.559L468.832 154.168L466.367 177.165H476.123L502.937 164.047L504.174 194.221L523.769 206.102L522.996 224.045L504.287 230.449L505.524 236.39L528.049 246.578L527.586 258.922L521.1 259.468L520.986 259.151L492.602 250.403L491.365 241.33L499.69 235.585V227.178L490.706 224.932L488.468 232.687L472.763 235.039L471.184 234.47V235.267L465.821 236.162L461.338 227.178L456.17 224.932H445.062L439.919 229.099V238.286L449.538 241.411L458.986 242.762L456.829 243.77L448.219 253.3L444.403 248.507L436.103 246.35L413.456 267.655L416.353 270.12L382.94 288.641L351.415 321.476L349.178 336.059L317.571 356.818L301.988 372.637L303.648 404.13L281.92 393.934L282.115 375.534H221.686L190.397 391.353L176.734 416.475L171.452 436.305L180.209 455.6L204.866 458.643L243.991 432.408L247.466 445.412L235.471 467.945L265.295 473.111L268.339 519.179L309.156 526.014L335.173 496.108L366.69 502.48L377.773 517.827L407.947 516.053L408.834 507.07L425.451 515.248L444.175 544.641L476.465 545.105L488.468 565.945L490.161 591.521L525.925 605.071L570.991 605.535L584.232 627.18L604.299 633.666L600.36 651.52L578.519 679.424L572.114 741.114L552.275 756.706L522.882 755.787L513.125 772.843L520.409 804.791L488.468 845.731L478.247 864.472L447.764 879.03L427.697 882.073L426.891 890.602L440.928 894.614L439.236 903.719L426.688 915.95L434.297 925.479L449.457 925.91L448.651 937.563L444.631 949.135L443.394 958.436L465.699 977.381L462.778 987.137L432.286 986.568L401.884 960.129L378.342 918.506L381.589 878.484L363.646 854.601L370.937 814.125L360.285 811.196V723.375C360.285 723.375 330.461 700.842 328.768 700.842C327.1 700.842 313.095 697.05 313.095 697.05L310.052 680.433L271.236 631.885L275.174 614.405L276.403 585.899L303.216 567.182L299.399 535.226L260.16 532.296L229.522 497.314L207.877 491.373L193.758 488.818L195.451 476.123L177.621 473.544V480.721L132.864 469.751L114.807 442.165L122.22 428.819L93.8529 387.537L89.0269 357.274H77.5773L81.3938 386.643L101.03 416.93L98.9064 428.819L82.1993 426.232L61.7907 391.468V350.878L40.5757 340.657V311.932L40.576 311.931ZM210.92 123.685V122.798H222.15L223.037 118.973H241.412V126.932L236.155 133.873H210.92V123.685H210.92ZM228.864 148.57C228.864 148.57 239.979 146.682 240.98 146.682C241.868 146.682 240.98 157.879 240.98 157.879L215.745 159.457L210.92 153.737L228.864 148.57H228.864ZM258.232 207.339L271.586 200.934L283.694 203.864L279.561 220.115L266.443 224.273L258.232 207.339V207.339ZM329.461 245.691V256.23H298.741L287.284 253.097L290.213 245.691L304.885 239.637H324.977V245.691H329.461L329.461 245.691ZM343.465 260.388V270.584L335.832 275.516L326.213 277.297V260.388H343.465H343.465ZM334.823 256.23V244.112L345.394 253.642L334.823 256.23V256.23ZM339.649 280.797V290.765L332.357 298.057H315.993L318.58 286.941L326.303 286.282L327.882 282.465L339.649 280.797V280.797ZM299.058 260.388H315.993L294.346 290.765L285.387 285.94L287.283 273.164L299.058 260.388H299.058ZM368.357 277.298V287.29H352.107L347.631 280.797V271.585H348.983L368.357 277.298V277.298ZM353.344 263.635L358.047 258.809L365.884 263.635L359.626 268.802L353.344 263.635Z" fill="#81C784"/>
<path fill-rule="evenodd" clip-rule="evenodd" d="M512 0.000518799C794.766 0.000518799 1024 229.233 1024 512.001C1024 794.767 794.768 1024 512 1024V0.0025096V0.000518799Z" fill="#1E88E5"/>
<path fill-rule="evenodd" clip-rule="evenodd" d="M767.35 202.056L768.474 210.348L756.012 212.938L754.346 230.564H769.246L789.108 228.634L799.305 216.522L788.428 212.278L782.486 205.442L773.524 190.972L769.246 170.564L752.426 173.926L747.714 181.216V189.278L755.786 194.766L767.35 202.056Z" fill="#81C784"/>
<path fill-rule="evenodd" clip-rule="evenodd" d="M753.116 208.914L754.002 197.808L744.126 193.53L730.346 196.684L720.126 213.166V223.704H732.016L753.116 208.914Z" fill="#81C784"/>
<path fill-rule="evenodd" clip-rule="evenodd" d="M850.27 127.704C862.193 138.208 873.633 149.252 884.539 160.815L884.424 185.693L862.429 196.913L864.667 204.205L899.782 204.522L909.774 189.674C932.266 217.389 951.941 247.497 968.316 279.575L965.149 283.154V305.803L975.133 304.45L980.196 304.558C983.49 311.98 986.624 319.498 989.569 327.106L963.027 327.538L949.559 312.866L947.003 289.184L933.309 296.705L925.902 325.528L906.185 304.45L905.381 284.589L886.199 268.11L879.136 261.047H856.954L864.008 280.886L890.706 295.698L895.305 300.636L889.592 303.532L889.788 319.239L876.783 324.632L865.707 322.168L858.726 312.409L876.783 313.298L881.722 306.81L841.701 279.764L838.662 268.339L822.415 283.043L805.939 279.65L780.786 312.173L775.881 324.985L759.83 326.413L736.06 326.527L721.934 319.929L717.777 291.652L722.826 278.33L746.94 273.049L773.299 278.33L776.538 263.747L765.315 261.047L769.132 238.401L795.719 234.231L814.231 207.996L833.409 204.751L850.663 207.339H856.954L853.477 182.761L832.491 191.292L825.089 172.917L812.878 171.224L810.642 158.563L820.601 147.793L844.257 138.473L850.271 127.704L850.27 127.704ZM512 815.564V599.794L525.923 605.069L570.99 605.537L584.229 627.179L604.297 633.667L600.359 651.519L578.517 679.423L572.114 741.116L552.275 756.706L522.881 755.787L513.125 772.841L520.406 804.789L512 815.565L512 815.564ZM512 256.38V239.319L528.047 246.578L527.584 258.922L521.098 259.465L520.984 259.147L512 256.38H512ZM512 227.805V198.965L523.765 206.1L522.995 224.043L512 227.805V227.805ZM512 132.984V91.5063L522.88 96.3245V114.584L538.235 118.516L530.512 132.984H512V132.984ZM1003.38 367.809C1005.96 376.624 1008.33 385.536 1010.44 394.534L1009.01 396.063L1012.07 401.809C1019.86 437.296 1024 474.169 1024 512C1024 634.46 980.976 746.861 909.262 834.965H892.489V800.883L872.965 774.648V733.594L858.065 718.783L856.829 701.761L875.782 665.532L839.781 602.058L844.06 559.11L811.651 555.632L799.761 543.752H778.001L767.006 553.939H728.653L727.417 557.416H706.006L657.116 501.594L657.573 458.188L665.636 455.167L668.656 438.575H657.116L652.406 421.063L709.016 380.245V351.33L736.719 335.829L747.949 337.067H770.824L788.652 327.449L846.184 322.942V352.344L891.479 363.878L900.438 370.287H908.762V354.229L935.006 351.762L959.891 370.287H1000.72L1003.38 367.809L1003.38 367.809Z" fill="#81C784"/>
</g>
<defs>
<clipPath id="clip0_1_3">
<rect width="1024" height="1024" fill="white"/>
</clipPath>
</defs>
</svg>
